<svg width="1931" height="76" viewBox="0 0 1931 76" fill="none" xmlns="http://www.w3.org/2000/svg">
<path d="M1929.1 1.5V27.8145C1929.1 53.1615 1908.55 73.7097 1883.21 73.71C1857.86 73.71 1837.31 53.1617 1837.31 27.8145C1837.31 53.1617 1816.76 73.71 1791.42 73.71C1766.07 73.71 1745.52 53.1617 1745.52 27.8145C1745.52 53.1615 1724.97 73.7097 1699.62 73.71C1674.28 73.71 1653.73 53.1617 1653.73 27.8145C1653.73 53.1617 1633.18 73.71 1607.83 73.71C1582.49 73.71 1561.94 53.1617 1561.94 27.8145C1561.94 53.1615 1541.39 73.7097 1516.04 73.71C1490.7 73.71 1470.15 53.1617 1470.15 27.8145C1470.15 53.1617 1449.6 73.71 1424.25 73.71C1398.91 73.71 1378.36 53.1617 1378.36 27.8145C1378.36 53.1615 1357.81 73.7097 1332.46 73.71C1307.12 73.71 1286.57 53.1617 1286.57 27.8145C1286.57 53.1617 1266.02 73.71 1240.67 73.71C1215.32 73.71 1194.78 53.1617 1194.78 27.8145C1194.78 53.1615 1174.23 73.7097 1148.88 73.71C1123.53 73.71 1102.99 53.1617 1102.99 27.8145C1102.99 53.1617 1082.44 73.71 1057.09 73.71C1031.74 73.71 1011.2 53.1617 1011.2 27.8145C1011.2 53.1615 990.648 73.7097 965.301 73.71C939.954 73.71 919.405 53.1617 919.405 27.8145C919.405 53.1617 898.857 73.71 873.51 73.71C848.163 73.71 827.614 53.1617 827.614 27.8145C827.614 53.1615 807.067 73.7097 781.72 73.71C756.372 73.71 735.824 53.1617 735.824 27.8145C735.824 53.1617 715.276 73.71 689.929 73.71C664.581 73.71 644.033 53.1617 644.033 27.8145C644.033 53.1615 623.486 73.7097 598.139 73.71C572.791 73.71 552.243 53.1617 552.243 27.8145C552.243 53.1617 531.695 73.71 506.348 73.71C481 73.71 460.452 53.1617 460.452 27.8145C460.452 53.1615 439.905 73.7097 414.558 73.71C389.21 73.71 368.662 53.1617 368.662 27.8145C368.662 53.1617 348.114 73.71 322.767 73.71C297.419 73.71 276.871 53.1617 276.871 27.8145C276.871 53.1615 256.324 73.7097 230.977 73.71C205.629 73.71 185.081 53.1617 185.081 27.8145C185.081 53.1617 164.533 73.71 139.186 73.71C113.838 73.71 93.29 53.1617 93.29 27.8145C93.29 53.1615 72.7425 73.7097 47.3955 73.71C22.0483 73.71 1.5 53.1617 1.5 27.8145V1.5H1929.1Z" fill="#88976A"/>
<path d="M1929.1 1.5H1930.6V0H1929.1V1.5ZM1883.21 73.71V75.21V75.21V73.71ZM1699.62 73.71V75.21V75.21V73.71ZM1516.04 73.71V75.21V75.21V73.71ZM1332.46 73.71V75.21V75.21V73.71ZM1148.88 73.71V75.21V75.21V73.71ZM965.301 73.71V75.21V75.21V73.71ZM781.72 73.71V75.21V75.21V73.71ZM598.139 73.71V75.21V75.21V73.71ZM414.558 73.71V75.21H414.558L414.558 73.71ZM230.977 73.71V75.21H230.977L230.977 73.71ZM47.3955 73.71V75.21H47.3955L47.3955 73.71ZM1.5 1.5V0H0V1.5H1.5ZM1929.1 1.5H1927.6V27.8145H1929.1H1930.6V1.5H1929.1ZM1929.1 27.8145H1927.6C1927.6 52.3331 1907.72 72.2097 1883.21 72.21V73.71V75.21C1909.38 75.2097 1930.6 53.9899 1930.6 27.8145H1929.1ZM1883.21 73.71V72.21C1858.69 72.21 1838.81 52.3333 1838.81 27.8145H1837.31H1835.81C1835.81 53.9901 1857.03 75.21 1883.21 75.21V73.71ZM1837.31 27.8145H1835.81C1835.81 52.3333 1815.93 72.21 1791.42 72.21V73.71V75.21C1817.59 75.21 1838.81 53.9901 1838.81 27.8145H1837.31ZM1791.42 73.71V72.21C1766.9 72.21 1747.02 52.3333 1747.02 27.8145H1745.52H1744.02C1744.02 53.9901 1765.24 75.21 1791.42 75.21V73.71ZM1745.52 27.8145H1744.02C1744.02 52.3331 1724.14 72.2097 1699.62 72.21V73.71V75.21C1725.8 75.2097 1747.02 53.9899 1747.02 27.8145H1745.52ZM1699.62 73.71V72.21C1675.11 72.21 1655.23 52.3333 1655.23 27.8145H1653.73H1652.23C1652.23 53.9901 1673.45 75.21 1699.62 75.21V73.71ZM1653.73 27.8145H1652.23C1652.23 52.3333 1632.35 72.21 1607.83 72.21V73.71V75.21C1634.01 75.21 1655.23 53.9901 1655.23 27.8145H1653.73ZM1607.83 73.71V72.21C1583.32 72.21 1563.44 52.3333 1563.44 27.8145H1561.94H1560.44C1560.44 53.9901 1581.66 75.21 1607.83 75.21V73.71ZM1561.94 27.8145H1560.44C1560.44 52.3331 1540.56 72.2097 1516.04 72.21V73.71V75.21C1542.22 75.2097 1563.44 53.9899 1563.44 27.8145H1561.94ZM1516.04 73.71V72.21C1491.53 72.21 1471.65 52.3333 1471.65 27.8145H1470.15H1468.65C1468.65 53.9901 1489.87 75.21 1516.04 75.21V73.71ZM1470.15 27.8145H1468.65C1468.65 52.3333 1448.77 72.21 1424.25 72.21V73.71V75.21C1450.43 75.21 1471.65 53.9901 1471.65 27.8145H1470.15ZM1424.25 73.71V72.21C1399.73 72.21 1379.86 52.3333 1379.86 27.8145H1378.36H1376.86C1376.86 53.9901 1398.08 75.21 1424.25 75.21V73.71ZM1378.36 27.8145H1376.86C1376.86 52.3331 1356.98 72.2097 1332.46 72.21V73.71V75.21C1358.64 75.2097 1379.86 53.9899 1379.86 27.8145H1378.36ZM1332.46 73.71V72.21C1307.94 72.21 1288.07 52.3333 1288.07 27.8145H1286.57H1285.07C1285.07 53.9901 1306.29 75.21 1332.46 75.21V73.71ZM1286.57 27.8145H1285.07C1285.07 52.3333 1265.19 72.21 1240.67 72.21V73.71V75.21C1266.85 75.21 1288.07 53.9901 1288.07 27.8145H1286.57ZM1240.67 73.71V72.21C1216.15 72.21 1196.28 52.3333 1196.28 27.8145H1194.78H1193.28C1193.28 53.9901 1214.5 75.21 1240.67 75.21V73.71ZM1194.78 27.8145H1193.28C1193.28 52.3331 1173.4 72.2097 1148.88 72.21V73.71V75.21C1175.06 75.2097 1196.28 53.9899 1196.28 27.8145H1194.78ZM1148.88 73.71V72.21C1124.36 72.21 1104.49 52.3333 1104.49 27.8145H1102.99H1101.49C1101.49 53.9901 1122.71 75.21 1148.88 75.21V73.71ZM1102.99 27.8145H1101.49C1101.49 52.3333 1081.61 72.21 1057.09 72.21V73.71V75.21C1083.27 75.21 1104.49 53.9901 1104.49 27.8145H1102.99ZM1057.09 73.71V72.21C1032.57 72.21 1012.7 52.3333 1012.7 27.8145H1011.2H1009.7C1009.7 53.9901 1030.92 75.21 1057.09 75.21V73.71ZM1011.2 27.8145H1009.7C1009.7 52.3331 989.819 72.2097 965.301 72.21V73.71V75.21C991.476 75.2097 1012.7 53.9899 1012.7 27.8145H1011.2ZM965.301 73.71V72.21C940.782 72.21 920.905 52.3333 920.905 27.8145H919.405H917.905C917.905 53.9901 939.125 75.21 965.301 75.21V73.71ZM919.405 27.8145H917.905C917.905 52.3333 898.029 72.21 873.51 72.21V73.71V75.21C899.685 75.21 920.905 53.9901 920.905 27.8145H919.405ZM873.51 73.71V72.21C848.991 72.21 829.114 52.3333 829.114 27.8145H827.614H826.114C826.114 53.9901 847.334 75.21 873.51 75.21V73.71ZM827.614 27.8145H826.114C826.114 52.3331 806.238 72.2097 781.72 72.21V73.71V75.21C807.895 75.2097 829.114 53.9899 829.114 27.8145H827.614ZM781.72 73.71V72.21C757.201 72.21 737.324 52.3333 737.324 27.8145H735.824H734.324C734.324 53.9901 755.544 75.21 781.72 75.21V73.71ZM735.824 27.8145H734.324C734.324 52.3333 714.448 72.21 689.929 72.21V73.71V75.21C716.104 75.21 737.324 53.9901 737.324 27.8145H735.824ZM689.929 73.71V72.21C665.41 72.21 645.533 52.3333 645.533 27.8145H644.033H642.533C642.533 53.9901 663.753 75.21 689.929 75.21V73.71ZM644.033 27.8145H642.533C642.533 52.3331 622.657 72.2097 598.139 72.21V73.71V75.21C624.314 75.2097 645.533 53.9899 645.533 27.8145H644.033ZM598.139 73.71V72.21C573.62 72.21 553.743 52.3333 553.743 27.8145H552.243H550.743C550.743 53.9901 571.963 75.21 598.139 75.21V73.71ZM552.243 27.8145H550.743C550.743 52.3333 530.866 72.21 506.348 72.21V73.71V75.21C532.523 75.21 553.743 53.9901 553.743 27.8145H552.243ZM506.348 73.71V72.21C481.829 72.21 461.952 52.3333 461.952 27.8145H460.452H458.952C458.952 53.9901 480.172 75.21 506.348 75.21V73.71ZM460.452 27.8145H458.952C458.952 52.3331 439.076 72.2097 414.558 72.21L414.558 73.71L414.558 75.21C440.733 75.2097 461.952 53.9899 461.952 27.8145H460.452ZM414.558 73.71V72.21C390.039 72.21 370.162 52.3333 370.162 27.8145H368.662H367.162C367.162 53.9901 388.382 75.21 414.558 75.21V73.71ZM368.662 27.8145H367.162C367.162 52.3333 347.285 72.21 322.767 72.21V73.71V75.21C348.942 75.21 370.162 53.9901 370.162 27.8145H368.662ZM322.767 73.71V72.21C298.248 72.21 278.371 52.3333 278.371 27.8145H276.871H275.371C275.371 53.9901 296.591 75.21 322.767 75.21V73.71ZM276.871 27.8145H275.371C275.371 52.3331 255.495 72.2097 230.977 72.21L230.977 73.71L230.977 75.21C257.152 75.2097 278.371 53.9899 278.371 27.8145H276.871ZM230.977 73.71V72.21C206.458 72.21 186.581 52.3333 186.581 27.8145H185.081H183.581C183.581 53.9901 204.801 75.21 230.977 75.21V73.71ZM185.081 27.8145H183.581C183.581 52.3333 163.704 72.21 139.186 72.21V73.71V75.21C165.361 75.21 186.581 53.9901 186.581 27.8145H185.081ZM139.186 73.71V72.21C114.667 72.21 94.79 52.3333 94.79 27.8145H93.29H91.79C91.79 53.9901 113.01 75.21 139.186 75.21V73.71ZM93.29 27.8145H91.79C91.79 52.3331 71.9141 72.2097 47.3955 72.21L47.3955 73.71L47.3955 75.21C73.571 75.2097 94.79 53.9899 94.79 27.8145H93.29ZM47.3955 73.71V72.21C22.8767 72.21 3 52.3333 3 27.8145H1.5H0C0 53.9901 21.2198 75.21 47.3955 75.21V73.71ZM1.5 27.8145H3V1.5H1.5H0V27.8145H1.5ZM1.5 1.5V3H1929.1V1.5V0H1.5V1.5Z" fill="#3B4826"/>
</svg>
