<svg width="52" height="84" viewBox="0 0 52 84" fill="none" xmlns="http://www.w3.org/2000/svg">
<path d="M25.9736 2.02441C26.6614 2.56491 27.649 3.36697 28.8369 4.40137C31.2148 6.47191 34.3839 9.46636 37.5488 13.1621C43.918 20.5996 50.085 30.6576 50.085 41.6084C50.0849 52.5591 43.9179 62.6163 37.5488 70.0537C34.3838 73.7496 31.2149 76.7448 28.8369 78.8154C27.6491 79.8497 26.6613 80.6509 25.9736 81.1914C25.911 81.2406 25.8496 81.2862 25.792 81.3311C25.7346 81.2863 25.6738 81.2405 25.6113 81.1914C24.9236 80.6509 23.935 79.8498 22.7471 78.8154C20.3691 76.7448 17.2002 73.7496 14.0352 70.0537C7.6661 62.6163 1.5001 52.559 1.5 41.6084C1.5 30.6576 7.66598 20.5996 14.0352 13.1621C17.2 9.46638 20.3692 6.47195 22.7471 4.40137C23.935 3.36696 24.9236 2.56492 25.6113 2.02441C25.6738 1.97534 25.7346 1.92951 25.792 1.88477C25.8496 1.92965 25.911 1.97517 25.9736 2.02441Z" fill="#88976A" stroke="#3B4826" stroke-width="3"/>
</svg>
